<mxfile host="app.diagrams.net" modified="2023-05-06T15:09:49.357Z" agent="Mozilla/5.0 (Windows NT 10.0; Win64; x64) AppleWebKit/537.36 (KHTML, like Gecko) Chrome/110.0.0.0 YaBrowser/23.3.2.810 Yowser/2.5 Safari/537.36" etag="IaoGJwrR-TRyDwVN9XT1" version="21.2.9" type="device">
  <diagram id="C5RBs43oDa-KdzZeNtuy" name="Page-1">
    <mxGraphModel dx="2505" dy="1443" grid="1" gridSize="10" guides="1" tooltips="1" connect="1" arrows="1" fold="1" page="1" pageScale="1" pageWidth="827" pageHeight="1169" math="0" shadow="0">
      <root>
        <mxCell id="WIyWlLk6GJQsqaUBKTNV-0" />
        <mxCell id="WIyWlLk6GJQsqaUBKTNV-1" parent="WIyWlLk6GJQsqaUBKTNV-0" />
        <mxCell id="WIyWlLk6GJQsqaUBKTNV-3" value="начало" style="rounded=1;whiteSpace=wrap;html=1;fontSize=12;glass=0;strokeWidth=1;shadow=0;" parent="WIyWlLk6GJQsqaUBKTNV-1" vertex="1">
          <mxGeometry x="330" y="20" width="120" height="40" as="geometry" />
        </mxCell>
        <mxCell id="DMJ_hv3Z9crm39RLXQ8g-0" value="инициализация&lt;br&gt;массива&amp;nbsp;&lt;br&gt;для&lt;br&gt;сортировки" style="shape=parallelogram;perimeter=parallelogramPerimeter;whiteSpace=wrap;html=1;fixedSize=1;" vertex="1" parent="WIyWlLk6GJQsqaUBKTNV-1">
          <mxGeometry x="330" y="100" width="120" height="60" as="geometry" />
        </mxCell>
        <mxCell id="DMJ_hv3Z9crm39RLXQ8g-1" value="установка начальних значений для&lt;br&gt;переменных" style="rounded=0;whiteSpace=wrap;html=1;" vertex="1" parent="WIyWlLk6GJQsqaUBKTNV-1">
          <mxGeometry x="330" y="200" width="120" height="60" as="geometry" />
        </mxCell>
        <mxCell id="DMJ_hv3Z9crm39RLXQ8g-2" value="выполняем прямой проход по элементам массива&amp;nbsp; до тех пор" style="shape=loopLimit;whiteSpace=wrap;html=1;" vertex="1" parent="WIyWlLk6GJQsqaUBKTNV-1">
          <mxGeometry x="300" y="320" width="200" height="80" as="geometry" />
        </mxCell>
        <mxCell id="DMJ_hv3Z9crm39RLXQ8g-4" value="ЕСЛИ ТЕКУЩИЙ БОЛЬШЕ СЛЕДУЮЩЕГО" style="rhombus;whiteSpace=wrap;html=1;" vertex="1" parent="WIyWlLk6GJQsqaUBKTNV-1">
          <mxGeometry x="195" y="520" width="410" height="80" as="geometry" />
        </mxCell>
        <mxCell id="DMJ_hv3Z9crm39RLXQ8g-5" value="&lt;pre style=&quot;background-color:#2b2b2b;color:#a9b7c6;font-family:&#39;JetBrains Mono&#39;,monospace;font-size:8,3pt;&quot;&gt;&lt;pre style=&quot;border-color: var(--border-color); color: rgb(0, 0, 0); background-color: rgb(251, 251, 251); font-family: &amp;quot;JetBrains Mono&amp;quot;, monospace;&quot;&gt;&lt;font style=&quot;border-color: var(--border-color);&quot; color=&quot;#1a1a1a&quot;&gt;ВЫПОЛНИТЬ ОБМЕН&lt;/font&gt;&lt;/pre&gt;&lt;/pre&gt;" style="shape=process;whiteSpace=wrap;html=1;backgroundOutline=1;" vertex="1" parent="WIyWlLk6GJQsqaUBKTNV-1">
          <mxGeometry x="620" y="620" width="160" height="100" as="geometry" />
        </mxCell>
        <mxCell id="DMJ_hv3Z9crm39RLXQ8g-8" value="&lt;font style=&quot;font-size: 14px;&quot;&gt;перемещение максимального элемента&amp;nbsp;&lt;br&gt;в конец массива&lt;br&gt;&lt;br&gt;&lt;/font&gt;" style="rounded=0;whiteSpace=wrap;html=1;" vertex="1" parent="WIyWlLk6GJQsqaUBKTNV-1">
          <mxGeometry x="342.5" y="960" width="115" height="70" as="geometry" />
        </mxCell>
        <mxCell id="DMJ_hv3Z9crm39RLXQ8g-17" value="" style="endArrow=classic;html=1;rounded=0;" edge="1" parent="WIyWlLk6GJQsqaUBKTNV-1">
          <mxGeometry width="50" height="50" relative="1" as="geometry">
            <mxPoint x="389.65999999999997" y="50" as="sourcePoint" />
            <mxPoint x="389.65999999999997" y="110" as="targetPoint" />
          </mxGeometry>
        </mxCell>
        <mxCell id="DMJ_hv3Z9crm39RLXQ8g-18" value="" style="endArrow=classic;html=1;rounded=0;" edge="1" parent="WIyWlLk6GJQsqaUBKTNV-1">
          <mxGeometry width="50" height="50" relative="1" as="geometry">
            <mxPoint x="389.65999999999997" y="140" as="sourcePoint" />
            <mxPoint x="389.65999999999997" y="200" as="targetPoint" />
          </mxGeometry>
        </mxCell>
        <mxCell id="DMJ_hv3Z9crm39RLXQ8g-19" value="" style="endArrow=classic;html=1;rounded=0;exitX=0.572;exitY=1.032;exitDx=0;exitDy=0;exitPerimeter=0;" edge="1" parent="WIyWlLk6GJQsqaUBKTNV-1" source="DMJ_hv3Z9crm39RLXQ8g-1">
          <mxGeometry width="50" height="50" relative="1" as="geometry">
            <mxPoint x="400" y="250" as="sourcePoint" />
            <mxPoint x="400" y="320" as="targetPoint" />
          </mxGeometry>
        </mxCell>
        <mxCell id="DMJ_hv3Z9crm39RLXQ8g-20" value="" style="endArrow=classic;html=1;rounded=0;" edge="1" parent="WIyWlLk6GJQsqaUBKTNV-1">
          <mxGeometry width="50" height="50" relative="1" as="geometry">
            <mxPoint x="709.41" y="720" as="sourcePoint" />
            <mxPoint x="709.41" y="780" as="targetPoint" />
          </mxGeometry>
        </mxCell>
        <mxCell id="DMJ_hv3Z9crm39RLXQ8g-21" value="" style="endArrow=classic;html=1;rounded=0;" edge="1" parent="WIyWlLk6GJQsqaUBKTNV-1">
          <mxGeometry width="50" height="50" relative="1" as="geometry">
            <mxPoint x="709.38" y="780" as="sourcePoint" />
            <mxPoint x="400" y="900" as="targetPoint" />
            <Array as="points">
              <mxPoint x="710" y="900" />
            </Array>
          </mxGeometry>
        </mxCell>
        <mxCell id="DMJ_hv3Z9crm39RLXQ8g-22" value="" style="endArrow=classic;html=1;rounded=0;exitX=0;exitY=0.5;exitDx=0;exitDy=0;" edge="1" parent="WIyWlLk6GJQsqaUBKTNV-1" source="DMJ_hv3Z9crm39RLXQ8g-4">
          <mxGeometry width="50" height="50" relative="1" as="geometry">
            <mxPoint x="70" y="560" as="sourcePoint" />
            <mxPoint x="400" y="900" as="targetPoint" />
            <Array as="points">
              <mxPoint x="70" y="560" />
              <mxPoint x="70" y="900" />
            </Array>
          </mxGeometry>
        </mxCell>
        <mxCell id="DMJ_hv3Z9crm39RLXQ8g-23" value="" style="endArrow=classic;html=1;rounded=0;entryX=0.5;entryY=0;entryDx=0;entryDy=0;" edge="1" parent="WIyWlLk6GJQsqaUBKTNV-1" target="DMJ_hv3Z9crm39RLXQ8g-4">
          <mxGeometry width="50" height="50" relative="1" as="geometry">
            <mxPoint x="400" y="400" as="sourcePoint" />
            <mxPoint x="399.23" y="420" as="targetPoint" />
          </mxGeometry>
        </mxCell>
        <mxCell id="DMJ_hv3Z9crm39RLXQ8g-24" value="" style="endArrow=classic;html=1;rounded=0;exitX=0.5;exitY=1;exitDx=0;exitDy=0;" edge="1" parent="WIyWlLk6GJQsqaUBKTNV-1" source="DMJ_hv3Z9crm39RLXQ8g-8">
          <mxGeometry width="50" height="50" relative="1" as="geometry">
            <mxPoint x="399.49999999999994" y="1109" as="sourcePoint" />
            <mxPoint x="400" y="1169" as="targetPoint" />
          </mxGeometry>
        </mxCell>
        <mxCell id="DMJ_hv3Z9crm39RLXQ8g-25" value="" style="endArrow=classic;html=1;rounded=0;" edge="1" parent="WIyWlLk6GJQsqaUBKTNV-1">
          <mxGeometry width="50" height="50" relative="1" as="geometry">
            <mxPoint x="610" y="560" as="sourcePoint" />
            <mxPoint x="700" y="620" as="targetPoint" />
            <Array as="points">
              <mxPoint x="700" y="560" />
            </Array>
          </mxGeometry>
        </mxCell>
        <mxCell id="DMJ_hv3Z9crm39RLXQ8g-32" value="" style="endArrow=classic;html=1;rounded=0;entryX=0.5;entryY=0;entryDx=0;entryDy=0;" edge="1" parent="WIyWlLk6GJQsqaUBKTNV-1" target="DMJ_hv3Z9crm39RLXQ8g-8">
          <mxGeometry width="50" height="50" relative="1" as="geometry">
            <mxPoint x="400" y="900" as="sourcePoint" />
            <mxPoint x="450" y="850" as="targetPoint" />
          </mxGeometry>
        </mxCell>
        <mxCell id="DMJ_hv3Z9crm39RLXQ8g-43" value="выполняем обратный проход&amp;nbsp;&lt;br&gt;по элементам массива" style="shape=loopLimit;whiteSpace=wrap;html=1;direction=east;" vertex="1" parent="WIyWlLk6GJQsqaUBKTNV-1">
          <mxGeometry x="300" y="1169" width="200" height="80" as="geometry" />
        </mxCell>
        <mxCell id="DMJ_hv3Z9crm39RLXQ8g-50" value="" style="endArrow=classic;html=1;rounded=0;exitX=0.5;exitY=1;exitDx=0;exitDy=0;" edge="1" parent="WIyWlLk6GJQsqaUBKTNV-1" source="DMJ_hv3Z9crm39RLXQ8g-60">
          <mxGeometry width="50" height="50" relative="1" as="geometry">
            <mxPoint x="388.37999999999994" y="1990" as="sourcePoint" />
            <mxPoint x="388.37999999999994" y="2050" as="targetPoint" />
          </mxGeometry>
        </mxCell>
        <mxCell id="DMJ_hv3Z9crm39RLXQ8g-55" value="отсортированнный&amp;nbsp;&lt;br&gt;массив" style="shape=parallelogram;perimeter=parallelogramPerimeter;whiteSpace=wrap;html=1;fixedSize=1;" vertex="1" parent="WIyWlLk6GJQsqaUBKTNV-1">
          <mxGeometry x="329" y="2050" width="120" height="60" as="geometry" />
        </mxCell>
        <mxCell id="DMJ_hv3Z9crm39RLXQ8g-57" value="конец" style="rounded=1;whiteSpace=wrap;html=1;fontSize=12;glass=0;strokeWidth=1;shadow=0;" vertex="1" parent="WIyWlLk6GJQsqaUBKTNV-1">
          <mxGeometry x="329" y="2160" width="120" height="40" as="geometry" />
        </mxCell>
        <mxCell id="DMJ_hv3Z9crm39RLXQ8g-58" value="" style="endArrow=classic;html=1;rounded=0;exitX=0.489;exitY=1.033;exitDx=0;exitDy=0;exitPerimeter=0;entryX=0.49;entryY=-0.069;entryDx=0;entryDy=0;entryPerimeter=0;" edge="1" parent="WIyWlLk6GJQsqaUBKTNV-1" source="DMJ_hv3Z9crm39RLXQ8g-55" target="DMJ_hv3Z9crm39RLXQ8g-57">
          <mxGeometry width="50" height="50" relative="1" as="geometry">
            <mxPoint x="393.47" y="2160" as="sourcePoint" />
            <mxPoint x="443.47" y="2110" as="targetPoint" />
          </mxGeometry>
        </mxCell>
        <mxCell id="DMJ_hv3Z9crm39RLXQ8g-60" value="&lt;font style=&quot;font-size: 14px;&quot;&gt;перемещение минимального элемента&amp;nbsp;&lt;br&gt;в конец массива&lt;br&gt;&lt;br&gt;&lt;/font&gt;" style="rounded=0;whiteSpace=wrap;html=1;" vertex="1" parent="WIyWlLk6GJQsqaUBKTNV-1">
          <mxGeometry x="329" y="1880" width="121" height="70" as="geometry" />
        </mxCell>
        <mxCell id="DMJ_hv3Z9crm39RLXQ8g-61" value="ЕСЛИ ТЕКУЩИЙ МЕНЬШЕ СЛЕДУЮЩЕГО" style="rhombus;whiteSpace=wrap;html=1;" vertex="1" parent="WIyWlLk6GJQsqaUBKTNV-1">
          <mxGeometry x="195" y="1390" width="410" height="80" as="geometry" />
        </mxCell>
        <mxCell id="DMJ_hv3Z9crm39RLXQ8g-62" value="&lt;pre style=&quot;font-family: &amp;quot;JetBrains Mono&amp;quot;, monospace;&quot;&gt;&lt;span style=&quot;background-color: rgb(255, 255, 255);&quot;&gt;&lt;font color=&quot;#1a1a1a&quot;&gt;ВЫПОЛНИТЬ ОБМЕН&lt;/font&gt;&lt;/span&gt;&lt;/pre&gt;" style="shape=process;whiteSpace=wrap;html=1;backgroundOutline=1;" vertex="1" parent="WIyWlLk6GJQsqaUBKTNV-1">
          <mxGeometry x="609" y="1490" width="160" height="100" as="geometry" />
        </mxCell>
        <mxCell id="DMJ_hv3Z9crm39RLXQ8g-64" value="" style="endArrow=classic;html=1;rounded=0;" edge="1" parent="WIyWlLk6GJQsqaUBKTNV-1">
          <mxGeometry width="50" height="50" relative="1" as="geometry">
            <mxPoint x="698.41" y="1590" as="sourcePoint" />
            <mxPoint x="698.41" y="1650" as="targetPoint" />
          </mxGeometry>
        </mxCell>
        <mxCell id="DMJ_hv3Z9crm39RLXQ8g-65" value="" style="endArrow=classic;html=1;rounded=0;" edge="1" parent="WIyWlLk6GJQsqaUBKTNV-1">
          <mxGeometry width="50" height="50" relative="1" as="geometry">
            <mxPoint x="698.38" y="1650" as="sourcePoint" />
            <mxPoint x="389" y="1770" as="targetPoint" />
            <Array as="points">
              <mxPoint x="699" y="1770" />
            </Array>
          </mxGeometry>
        </mxCell>
        <mxCell id="DMJ_hv3Z9crm39RLXQ8g-66" value="" style="endArrow=classic;html=1;rounded=0;exitX=0;exitY=0.5;exitDx=0;exitDy=0;" edge="1" parent="WIyWlLk6GJQsqaUBKTNV-1" source="DMJ_hv3Z9crm39RLXQ8g-61">
          <mxGeometry width="50" height="50" relative="1" as="geometry">
            <mxPoint x="180" y="1430" as="sourcePoint" />
            <mxPoint x="389" y="1770" as="targetPoint" />
            <Array as="points">
              <mxPoint x="59" y="1430" />
              <mxPoint x="59" y="1770" />
            </Array>
          </mxGeometry>
        </mxCell>
        <mxCell id="DMJ_hv3Z9crm39RLXQ8g-67" value="" style="endArrow=classic;html=1;rounded=0;" edge="1" parent="WIyWlLk6GJQsqaUBKTNV-1">
          <mxGeometry width="50" height="50" relative="1" as="geometry">
            <mxPoint x="599" y="1430" as="sourcePoint" />
            <mxPoint x="689" y="1490" as="targetPoint" />
            <Array as="points">
              <mxPoint x="689" y="1430" />
            </Array>
          </mxGeometry>
        </mxCell>
        <mxCell id="DMJ_hv3Z9crm39RLXQ8g-68" value="" style="endArrow=classic;html=1;rounded=0;entryX=0.5;entryY=0;entryDx=0;entryDy=0;" edge="1" parent="WIyWlLk6GJQsqaUBKTNV-1" target="DMJ_hv3Z9crm39RLXQ8g-60">
          <mxGeometry width="50" height="50" relative="1" as="geometry">
            <mxPoint x="389" y="1770" as="sourcePoint" />
            <mxPoint x="389" y="1830" as="targetPoint" />
          </mxGeometry>
        </mxCell>
        <mxCell id="DMJ_hv3Z9crm39RLXQ8g-69" value="" style="endArrow=classic;html=1;rounded=0;" edge="1" parent="WIyWlLk6GJQsqaUBKTNV-1">
          <mxGeometry width="50" height="50" relative="1" as="geometry">
            <mxPoint x="399.58" y="1249" as="sourcePoint" />
            <mxPoint x="399.28999999999996" y="1389" as="targetPoint" />
          </mxGeometry>
        </mxCell>
        <mxCell id="DMJ_hv3Z9crm39RLXQ8g-73" value="установить границу на текущем&amp;nbsp;&lt;br&gt;элементе&lt;br&gt;" style="rounded=0;whiteSpace=wrap;html=1;" vertex="1" parent="WIyWlLk6GJQsqaUBKTNV-1">
          <mxGeometry x="649" y="780" width="120" height="60" as="geometry" />
        </mxCell>
        <mxCell id="DMJ_hv3Z9crm39RLXQ8g-74" value="установить границу на текущем&amp;nbsp;&lt;br&gt;элементе&lt;br&gt;" style="rounded=0;whiteSpace=wrap;html=1;" vertex="1" parent="WIyWlLk6GJQsqaUBKTNV-1">
          <mxGeometry x="640" y="1650" width="120" height="60" as="geometry" />
        </mxCell>
      </root>
    </mxGraphModel>
  </diagram>
</mxfile>
